# xmcd
#
# Track frame offsets:
#	150
#	18719
#	31533
#	44774
#	58609
#	70849
#	97866
#	101871
#	119450
#	139069
#	158696
#	171136
#	188188
#
# Disc length: 2941 seconds
# Revision: 0
# Processed by: cddbd v1.5.2PL0 Copyright (c) Steve Scherf et al.
# Submitted via: dBpowerAMP V12.0
#
DISCID=ae0b7b0d
DTITLE=Cyrz - Melancolie frenetique
DYEAR=2009
DGENRE=Chanson
TTITLE0=Pardon messieurs dames
TTITLE1=On ne vit que pour soi
TTITLE2=Beyrouth
TTITLE3=La boule a facettes
TTITLE4=C'est pas l'amour a boire
TTITLE5=Double infidelite
TTITLE6=L'oubli
TTITLE7=Anoure
TTITLE8=Un arriere gout
TTITLE9=Les gens se suivent
TTITLE10=De fille en aiguille
TTITLE11=Sursis
TTITLE12=Je reste la
EXTD=
EXTT0=
EXTT1=
EXTT2=
EXTT3=
EXTT4=
EXTT5=
EXTT6=
EXTT7=
EXTT8=
EXTT9=
EXTT10=
EXTT11=
EXTT12=
PLAYORDER=
